<mxfile host="app.diagrams.net" modified="2023-04-26T10:56:52.297Z" agent="Mozilla/5.0 (Windows NT 10.0; Win64; x64) AppleWebKit/537.36 (KHTML, like Gecko) Chrome/112.0.0.0 Safari/537.36" etag="8X3gG2d1YkLz9ol6uP8P" version="21.2.2" type="dropbox">
  <diagram id="R81Yqedujg8j3jE1_VmJ" name="Page-1">
    <mxGraphModel dx="574" dy="318" grid="1" gridSize="5" guides="1" tooltips="1" connect="1" arrows="1" fold="1" page="1" pageScale="1" pageWidth="1169" pageHeight="827" math="0" shadow="0">
      <root>
        <mxCell id="0" />
        <mxCell id="1" parent="0" />
        <mxCell id="PONALPWFbD0zD82RdE57-1" value="Otitis externa" style="rounded=1;whiteSpace=wrap;html=1;spacingTop=0;fontStyle=1;align=left;spacing=5;fillColor=#caf0f8;strokeColor=#219EBC;fontSize=11;" parent="1" vertex="1">
          <mxGeometry x="40" y="40" width="80" height="20" as="geometry" />
        </mxCell>
        <mxCell id="PONALPWFbD0zD82RdE57-2" value="D:&amp;nbsp;diffuse inflammation of the external ear canal" style="rounded=0;whiteSpace=wrap;html=1;spacingTop=-7;spacing=5;align=left;verticalAlign=top;strokeColor=#219EBC;fontSize=11;" parent="1" vertex="1">
          <mxGeometry x="40" y="70" width="190" height="30" as="geometry" />
        </mxCell>
        <mxCell id="PONALPWFbD0zD82RdE57-3" value="A/P: most commonly P. aeru or S. aureus. ⨮ seborrhoeic dermatitis, contact dermatitis" style="rounded=0;whiteSpace=wrap;html=1;spacingTop=-7;spacing=5;align=left;verticalAlign=top;strokeColor=#219EBC;fontSize=11;" parent="1" vertex="1">
          <mxGeometry x="40" y="180" width="190" height="45" as="geometry" />
        </mxCell>
        <mxCell id="PONALPWFbD0zD82RdE57-4" value="R: external canal obstruction, high environmental humidity/ temp, swimming, local trauma, allergy, skin disease, DM, immunocomp" style="rounded=0;whiteSpace=wrap;html=1;spacingTop=-7;spacing=5;align=left;verticalAlign=top;strokeColor=#219EBC;fontSize=11;" parent="1" vertex="1">
          <mxGeometry x="40" y="110" width="190" height="60" as="geometry" />
        </mxCell>
        <mxCell id="PONALPWFbD0zD82RdE57-5" value="Features + Ix&lt;br style=&quot;font-size: 11px;&quot;&gt;• &lt;b style=&quot;font-size: 11px;&quot;&gt;ear pain, itch, discharge&lt;/b&gt;&lt;br style=&quot;font-size: 11px;&quot;&gt;• otoscopy: red, swollen, &lt;br style=&quot;font-size: 11px;&quot;&gt;&amp;nbsp; eczematous canal&lt;br style=&quot;font-size: 11px;&quot;&gt;• ? swab if repetitive + ref to ENT" style="rounded=0;whiteSpace=wrap;html=1;spacingTop=-7;spacing=5;align=left;verticalAlign=top;strokeColor=#219EBC;fontSize=11;" parent="1" vertex="1">
          <mxGeometry x="40" y="235" width="190" height="75" as="geometry" />
        </mxCell>
        <mxCell id="PONALPWFbD0zD82RdE57-6" value="Mx&lt;span style=&quot;white-space: pre; font-size: 11px;&quot;&gt;	&lt;/span&gt;☝🏻&amp;nbsp;topical abx ± steroid&lt;br style=&quot;font-size: 11px;&quot;&gt;&amp;nbsp; ↳ mild: hydrocortisone cream to &lt;br style=&quot;font-size: 11px;&quot;&gt;&amp;nbsp; &amp;nbsp; &amp;nbsp; &amp;nbsp;pinna, EarCalm spray (2% &lt;br style=&quot;font-size: 11px;&quot;&gt;&amp;nbsp; &amp;nbsp; &amp;nbsp; &amp;nbsp;acetic acid to ↓pH)&lt;br style=&quot;font-size: 11px;&quot;&gt;&amp;nbsp; ↳ mod: Otosporin, etc&lt;br style=&quot;font-size: 11px;&quot;&gt;• If TM is perforated, avoid &lt;br style=&quot;font-size: 11px;&quot;&gt;&amp;nbsp; aminoglycosides (? ototoxicity)&lt;br style=&quot;font-size: 11px;&quot;&gt;• clear out canal debris&lt;br style=&quot;font-size: 11px;&quot;&gt;• if canal very swollen, consider &lt;br style=&quot;font-size: 11px;&quot;&gt;&amp;nbsp; ear wick&lt;br style=&quot;font-size: 11px;&quot;&gt;✌🏻• oral abx if infxn spreading&lt;br style=&quot;font-size: 11px;&quot;&gt;• ?? empirical use of antifungal&lt;br style=&quot;font-size: 11px;&quot;&gt;3rd: if no response to topical abx, &lt;br style=&quot;font-size: 11px;&quot;&gt;&amp;nbsp; refer to ENT for further Ix" style="rounded=0;whiteSpace=wrap;html=1;spacingTop=-7;spacing=5;align=left;verticalAlign=top;strokeColor=#219EBC;fontSize=11;" parent="1" vertex="1">
          <mxGeometry x="40" y="320" width="190" height="190" as="geometry" />
        </mxCell>
        <mxCell id="PONALPWFbD0zD82RdE57-7" value="Administration of topical abx&lt;br style=&quot;font-size: 11px;&quot;&gt;• Lie down + affected ear up&lt;br style=&quot;font-size: 11px;&quot;&gt;• Put as many drops required to&amp;nbsp;fill &lt;br&gt;&amp;nbsp; the ear canal, massage the&amp;nbsp;ear &lt;br&gt;&amp;nbsp; canal and pinna to help&amp;nbsp;drops go in&lt;br style=&quot;font-size: 11px;&quot;&gt;• Remain in this position for ≥5m&lt;br style=&quot;font-size: 11px;&quot;&gt;• Don&#39;t expose ear to water&amp;nbsp;" style="rounded=0;whiteSpace=wrap;html=1;spacingTop=-7;spacing=5;align=left;verticalAlign=top;strokeColor=#219EBC;fontSize=11;" parent="1" vertex="1">
          <mxGeometry x="40" y="510" width="190" height="100" as="geometry" />
        </mxCell>
        <mxCell id="PONALPWFbD0zD82RdE57-8" value="Complications&lt;br style=&quot;font-size: 11px;&quot;&gt;• Malignant OE = osteomyelitis of &lt;br style=&quot;font-size: 11px;&quot;&gt;&amp;nbsp; the skull base&amp;nbsp;&lt;br style=&quot;font-size: 11px;&quot;&gt;&amp;nbsp; ↳ usually in elderly diabetics&lt;br style=&quot;font-size: 11px;&quot;&gt;&amp;nbsp; ↳ pain out of proportion ± CN palsy&lt;br style=&quot;font-size: 11px;&quot;&gt;&amp;nbsp; ↳ IV abx ±&amp;nbsp; debridement + O2&lt;br style=&quot;font-size: 11px;&quot;&gt;• CN VII palsy (poor prog)&lt;br style=&quot;font-size: 11px;&quot;&gt;Prog: 65-90% have resolution within 7-10d&amp;nbsp;" style="rounded=0;whiteSpace=wrap;html=1;spacingTop=-7;spacing=5;align=left;verticalAlign=top;strokeColor=#219EBC;fontSize=11;" parent="1" vertex="1">
          <mxGeometry x="40" y="620" width="190" height="125" as="geometry" />
        </mxCell>
        <mxCell id="PONALPWFbD0zD82RdE57-11" value="Causes of otalgia" style="swimlane;whiteSpace=wrap;html=1;strokeColor=#023047;fontSize=11;fillColor=#264653;fontColor=#ffffff;" parent="1" vertex="1">
          <mxGeometry x="260" y="40" width="190" height="350" as="geometry" />
        </mxCell>
        <mxCell id="PONALPWFbD0zD82RdE57-12" value="Furunculosis = painful Staph abscess arising in hair follicle within the canal&lt;br&gt;• Lance with sucker fine end&lt;br&gt;• Tx with oral abx&lt;br&gt;• Check with DM" style="rounded=0;whiteSpace=wrap;html=1;spacingTop=-7;spacing=5;align=left;verticalAlign=top;strokeColor=#023047;fontSize=11;fillColor=#FFFFFF;" parent="PONALPWFbD0zD82RdE57-11" vertex="1">
          <mxGeometry x="5" y="105" width="180" height="85" as="geometry" />
        </mxCell>
        <mxCell id="PONALPWFbD0zD82RdE57-13" value="Barotrauma&lt;br&gt;• Severe pain ± 2ndary effusion as &lt;br&gt;&amp;nbsp; a transudate or haemotympanum&lt;br&gt;• Prevent: don&#39;t fly with URTI, &lt;br&gt;&amp;nbsp; decongestants, repeatedly yawn, &lt;br&gt;&amp;nbsp; swallow, move jaw" style="rounded=0;whiteSpace=wrap;html=1;spacingTop=-7;spacing=5;align=left;verticalAlign=top;strokeColor=#023047;fontSize=11;fillColor=#FFFFFF;" parent="PONALPWFbD0zD82RdE57-11" vertex="1">
          <mxGeometry x="5" y="195" width="180" height="85" as="geometry" />
        </mxCell>
        <mxCell id="PONALPWFbD0zD82RdE57-14" value="TMJ dysfunction&lt;br&gt;• Earache, facial pain, joint clicking &lt;br&gt;&amp;nbsp; related to teeth-grinding + stress!&lt;br&gt;• Conservative tx ± analgesia&amp;nbsp;" style="rounded=0;whiteSpace=wrap;html=1;spacingTop=-7;spacing=5;align=left;verticalAlign=top;strokeColor=#023047;fontSize=11;fillColor=#FFFFFF;" parent="PONALPWFbD0zD82RdE57-11" vertex="1">
          <mxGeometry x="5" y="285" width="180" height="60" as="geometry" />
        </mxCell>
        <mxCell id="PONALPWFbD0zD82RdE57-15" value="Otitis externa" style="rounded=0;whiteSpace=wrap;html=1;spacingTop=-7;spacing=5;align=left;verticalAlign=top;strokeColor=#023047;fontSize=11;fillColor=#FFFFFF;" parent="PONALPWFbD0zD82RdE57-11" vertex="1">
          <mxGeometry x="5" y="30" width="180" height="20" as="geometry" />
        </mxCell>
        <mxCell id="PONALPWFbD0zD82RdE57-27" value="Malignant otitis externa" style="rounded=0;whiteSpace=wrap;html=1;spacingTop=-7;spacing=5;align=left;verticalAlign=top;strokeColor=#023047;fontSize=11;fillColor=#FFFFFF;" parent="PONALPWFbD0zD82RdE57-11" vertex="1">
          <mxGeometry x="5" y="55" width="180" height="20" as="geometry" />
        </mxCell>
        <mxCell id="PONALPWFbD0zD82RdE57-34" value="Otitis media – acute or chronic" style="rounded=0;whiteSpace=wrap;html=1;spacingTop=-7;spacing=5;align=left;verticalAlign=top;strokeColor=#023047;fontSize=11;fillColor=#FFFFFF;" parent="PONALPWFbD0zD82RdE57-11" vertex="1">
          <mxGeometry x="5" y="80" width="180" height="20" as="geometry" />
        </mxCell>
        <mxCell id="PONALPWFbD0zD82RdE57-16" value="Causes of discharging ear" style="swimlane;whiteSpace=wrap;html=1;strokeColor=#344e41;fontSize=11;fillColor=#3a5a40;fontColor=#ffffff;" parent="1" vertex="1">
          <mxGeometry x="260" y="400" width="190" height="390" as="geometry" />
        </mxCell>
        <mxCell id="PONALPWFbD0zD82RdE57-17" value="Otitis media – acute or chronic" style="rounded=0;whiteSpace=wrap;html=1;spacingTop=-7;spacing=5;align=left;verticalAlign=top;strokeColor=#344E41;fontSize=11;fillColor=#FFFFFF;" parent="PONALPWFbD0zD82RdE57-16" vertex="1">
          <mxGeometry x="5" y="55" width="180" height="20" as="geometry" />
        </mxCell>
        <mxCell id="PONALPWFbD0zD82RdE57-18" value="Eustachian tube dysfunction&lt;br&gt;• Closed (blocked) vs constantly &lt;br&gt;&amp;nbsp; open (patulous; &quot;sniffing&quot;)&lt;br&gt;• Blocked Mx: Grommet insertion, &lt;br&gt;&amp;nbsp; balloon dilation&lt;br&gt;• Patulous Mx: topical intranasal &lt;br&gt;&amp;nbsp; irritants → oedema of Eustachian &lt;br&gt;&amp;nbsp; tube orifice. Also surgery" style="rounded=0;whiteSpace=wrap;html=1;spacingTop=-7;spacing=5;align=left;verticalAlign=top;strokeColor=#344E41;fontSize=11;fillColor=#FFFFFF;" parent="PONALPWFbD0zD82RdE57-16" vertex="1">
          <mxGeometry x="5" y="80" width="180" height="110" as="geometry" />
        </mxCell>
        <mxCell id="PONALPWFbD0zD82RdE57-20" value="Otitis externa" style="rounded=0;whiteSpace=wrap;html=1;spacingTop=-7;spacing=5;align=left;verticalAlign=top;strokeColor=#344E41;fontSize=11;fillColor=#FFFFFF;" parent="PONALPWFbD0zD82RdE57-16" vertex="1">
          <mxGeometry x="5" y="30" width="180" height="20" as="geometry" />
        </mxCell>
        <mxCell id="PONALPWFbD0zD82RdE57-39" value="Cholesteatoma&lt;br&gt;• peak incidence 5-15yo&lt;br&gt;• S/smx: discharge ± deafness, &lt;br&gt;&amp;nbsp; HA, pain, facial paralysis, vertigo &lt;br&gt;&amp;nbsp; → impending CNS comp&lt;br&gt;• Mx: mastoid surgery" style="rounded=0;whiteSpace=wrap;html=1;spacingTop=-7;spacing=5;align=left;verticalAlign=top;strokeColor=#344E41;fontSize=11;fillColor=#FFFFFF;" parent="PONALPWFbD0zD82RdE57-16" vertex="1">
          <mxGeometry x="5" y="195" width="180" height="85" as="geometry" />
        </mxCell>
        <mxCell id="PONALPWFbD0zD82RdE57-40" value="Mastoiditis&lt;br&gt;• S/smx: fever, tenderness, &lt;br&gt;&amp;nbsp; swelling, redness behind pinna, &lt;br&gt;&amp;nbsp; protruding auricle&lt;br&gt;• CT to Dx&lt;br&gt;• Mx: abx, myringotomy ± &lt;br&gt;&amp;nbsp; mastoidectomy" style="rounded=0;whiteSpace=wrap;html=1;spacingTop=-7;spacing=5;align=left;verticalAlign=top;strokeColor=#344E41;fontSize=11;fillColor=#FFFFFF;" parent="PONALPWFbD0zD82RdE57-16" vertex="1">
          <mxGeometry x="5" y="285" width="180" height="100" as="geometry" />
        </mxCell>
        <mxCell id="PONALPWFbD0zD82RdE57-21" value="Otitis media" style="rounded=1;whiteSpace=wrap;html=1;spacingTop=0;fontStyle=1;align=left;spacing=5;fillColor=#cfe1b9;strokeColor=#588157;fontSize=11;" parent="1" vertex="1">
          <mxGeometry x="480" y="40" width="75" height="20" as="geometry" />
        </mxCell>
        <mxCell id="PONALPWFbD0zD82RdE57-22" value="D: inflammation/infection involving the middle ear space" style="rounded=0;whiteSpace=wrap;html=1;spacingTop=-7;spacing=5;align=left;verticalAlign=top;strokeColor=#588157;fontSize=11;" parent="1" vertex="1">
          <mxGeometry x="480" y="70" width="190" height="30" as="geometry" />
        </mxCell>
        <mxCell id="PONALPWFbD0zD82RdE57-23" value="R: day care attendance, older sibs, young age, FHx, supine feeding, craniofacial anomaly, immunocomp&amp;nbsp;" style="rounded=0;whiteSpace=wrap;html=1;spacingTop=-7;spacing=5;align=left;verticalAlign=top;strokeColor=#588157;fontSize=11;" parent="1" vertex="1">
          <mxGeometry x="480" y="110" width="190" height="45" as="geometry" />
        </mxCell>
        <mxCell id="PONALPWFbD0zD82RdE57-24" value="A/P: usually preceded by URTI. Most infxns are bacterial – &lt;i&gt;S pneumoniae, H. influenzae and M. catarrhalis&lt;/i&gt;.&amp;nbsp;" style="rounded=0;whiteSpace=wrap;html=1;spacingTop=-7;spacing=5;align=left;verticalAlign=top;strokeColor=#588157;fontSize=11;" parent="1" vertex="1">
          <mxGeometry x="480" y="165" width="190" height="45" as="geometry" />
        </mxCell>
        <mxCell id="PONALPWFbD0zD82RdE57-25" value="S/smx&amp;nbsp; &amp;nbsp;• Otalgia&amp;nbsp;due to bulging TM&lt;br&gt;• Ear discharge if TM ruptures – less &lt;br&gt;&amp;nbsp; or no otalgia&lt;br&gt;• Fever in 50%&amp;nbsp;&lt;span style=&quot;white-space: pre;&quot;&gt;	&lt;/span&gt;• Hearing loss&lt;br&gt;• Recent URTI (usually viral)" style="rounded=0;whiteSpace=wrap;html=1;spacingTop=-7;spacing=5;align=left;verticalAlign=top;strokeColor=#588157;fontSize=11;" parent="1" vertex="1">
          <mxGeometry x="480" y="220" width="190" height="70" as="geometry" />
        </mxCell>
        <mxCell id="PONALPWFbD0zD82RdE57-26" value="Otoscopy&lt;br&gt;• Bulging TM → loss of light reflex&lt;br&gt;• Opacification / erythema of TM&lt;br&gt;• Perforation + puruluent otorrhea" style="rounded=0;whiteSpace=wrap;html=1;spacingTop=-7;spacing=5;align=left;verticalAlign=top;strokeColor=#588157;fontSize=11;" parent="1" vertex="1">
          <mxGeometry x="480" y="300" width="190" height="60" as="geometry" />
        </mxCell>
        <mxCell id="PONALPWFbD0zD82RdE57-35" value="Mx&lt;span style=&quot;white-space: pre;&quot;&gt;	&lt;/span&gt;• Analgesia alone; 60% cases &lt;br&gt;&lt;span style=&quot;white-space: pre;&quot;&gt;	&lt;/span&gt;&amp;nbsp; resolve in 24h without abx&lt;br&gt;&lt;span style=&quot;white-space: pre;&quot;&gt;	&lt;/span&gt;&amp;nbsp; ↳ cons delayed prescription&lt;br&gt;• Abx if&amp;nbsp;- smx ≥4d, no improvement&lt;br&gt;&amp;nbsp; - systemically unwell&lt;br&gt;&amp;nbsp; - immunocomp&lt;br&gt;&amp;nbsp; - &amp;lt;2yo with bilateral OM&lt;br&gt;&amp;nbsp; - OM with perforation ± discharge&lt;br&gt;• Abx: amoxicillin 5-7d or &lt;br&gt;&amp;nbsp; erythromycin, clarythromycin" style="rounded=0;whiteSpace=wrap;html=1;spacingTop=-7;spacing=5;align=left;verticalAlign=top;strokeColor=#588157;fontSize=11;" parent="1" vertex="1">
          <mxGeometry x="480" y="370" width="190" height="140" as="geometry" />
        </mxCell>
        <mxCell id="PONALPWFbD0zD82RdE57-37" value="&lt;u&gt;COM&lt;/u&gt;: TM perforation in the setting of recurrent / chronic infections (&amp;gt;6w)&lt;br&gt;&lt;font style=&quot;font-size: 10px;&quot;&gt;• Types: benign COM (dry), chronic &lt;br&gt;&amp;nbsp; serous OM, chronic suppurative OM&lt;/font&gt;&lt;br&gt;S/smx: hearing loss, otorrhoea, &lt;br&gt;&amp;nbsp; fullness, otalgia&lt;br&gt;Mx: topical or PO abx, aural cleaning, water precaution, f/u&lt;br&gt;• ± surgery (grommets, etc)&lt;br&gt;Comp: cholesteatoma" style="rounded=0;whiteSpace=wrap;html=1;spacingTop=-7;spacing=5;align=left;verticalAlign=top;strokeColor=#588157;fontSize=11;" parent="1" vertex="1">
          <mxGeometry x="480" y="640" width="190" height="140" as="geometry" />
        </mxCell>
        <mxCell id="PONALPWFbD0zD82RdE57-38" value="Complications&lt;br&gt;• Perforation of TM → can cause &lt;br&gt;&amp;nbsp; COM (if &amp;gt;6w)&lt;br&gt;• Hearing loss&amp;nbsp;&lt;span style=&quot;white-space: pre;&quot;&gt;	&lt;span style=&quot;white-space: pre;&quot;&gt;	&lt;/span&gt;•&lt;/span&gt;&amp;nbsp;Labyrinthitis&lt;br&gt;&lt;b&gt;&lt;i&gt;Can lead to cholesteatoma, which can lead to these complications&lt;/i&gt;&lt;/b&gt;&lt;br&gt;• Mastoiditis&lt;span style=&quot;white-space: pre;&quot;&gt;	&lt;/span&gt;&lt;span style=&quot;white-space: pre;&quot;&gt;	&lt;/span&gt;• Meningitis&lt;br&gt;• Brain abscess&lt;span style=&quot;white-space: pre;&quot;&gt;	&lt;/span&gt;• CN VII palsy" style="rounded=0;whiteSpace=wrap;html=1;spacingTop=-7;spacing=5;align=left;verticalAlign=top;strokeColor=#588157;fontSize=11;" parent="1" vertex="1">
          <mxGeometry x="480" y="520" width="190" height="110" as="geometry" />
        </mxCell>
        <mxCell id="PONALPWFbD0zD82RdE57-42" style="edgeStyle=orthogonalEdgeStyle;rounded=0;orthogonalLoop=1;jettySize=auto;html=1;exitX=1;exitY=0.25;exitDx=0;exitDy=0;entryX=0;entryY=0.5;entryDx=0;entryDy=0;fontSize=10;strokeColor=#3A5A40;endArrow=blockThin;endFill=0;" parent="1" source="PONALPWFbD0zD82RdE57-39" target="PONALPWFbD0zD82RdE57-38" edge="1">
          <mxGeometry relative="1" as="geometry" />
        </mxCell>
        <mxCell id="PONALPWFbD0zD82RdE57-43" value="= otitis media with effusion&lt;br&gt;&amp;nbsp; &amp;nbsp;or serous otitis media" style="rounded=0;whiteSpace=wrap;html=1;spacingTop=-7;spacing=5;align=left;verticalAlign=top;strokeColor=#588157;fontSize=11;" parent="1" vertex="1">
          <mxGeometry x="700" y="70" width="190" height="30" as="geometry" />
        </mxCell>
        <mxCell id="PONALPWFbD0zD82RdE57-44" value="Glue ear" style="rounded=1;whiteSpace=wrap;html=1;spacingTop=0;fontStyle=1;align=left;spacing=5;fillColor=#cfe1b9;strokeColor=#588157;fontSize=11;" parent="1" vertex="1">
          <mxGeometry x="700" y="40" width="55" height="20" as="geometry" />
        </mxCell>
        <mxCell id="PONALPWFbD0zD82RdE57-45" value="R: M&amp;gt;F, sibs with glue ear, spring/winter, bottle feeding, day care attendance, parental smoking" style="rounded=0;whiteSpace=wrap;html=1;spacingTop=-7;spacing=5;align=left;verticalAlign=top;strokeColor=#588157;fontSize=11;" parent="1" vertex="1">
          <mxGeometry x="700" y="110" width="190" height="45" as="geometry" />
        </mxCell>
        <mxCell id="PONALPWFbD0zD82RdE57-46" value="Features&lt;br&gt;• Peaks at 2yo&lt;br&gt;• Hearing loss in 80% – most often &lt;br&gt;&amp;nbsp; noticed by parents/teachers&lt;br&gt;&amp;nbsp; ↳ poor listening, poor speech, &lt;br&gt;&amp;nbsp; &amp;nbsp; &amp;nbsp; language delay, inattention, etc&lt;br&gt;• Can be painless" style="rounded=0;whiteSpace=wrap;html=1;spacingTop=-7;spacing=5;align=left;verticalAlign=top;strokeColor=#588157;fontSize=11;" parent="1" vertex="1">
          <mxGeometry x="700" y="165" width="190" height="100" as="geometry" />
        </mxCell>
        <mxCell id="PONALPWFbD0zD82RdE57-47" value="Otoscopy:&amp;nbsp;&lt;br&gt;• Variable appearance of TM&lt;br&gt;&amp;nbsp; ↳ dull, grey, yellow&lt;br&gt;• Bubbles or fluid level&lt;br&gt;• Otoscopic Dx is very inaccurate" style="rounded=0;whiteSpace=wrap;html=1;spacingTop=-7;spacing=5;align=left;verticalAlign=top;strokeColor=#588157;fontSize=11;" parent="1" vertex="1">
          <mxGeometry x="700" y="275" width="190" height="75" as="geometry" />
        </mxCell>
        <mxCell id="PONALPWFbD0zD82RdE57-48" value="Ix: ref for formal Ax of hearing&lt;br&gt;• Audiograms: conductive defects&lt;br&gt;• Tympanometry: look for flat type B" style="rounded=0;whiteSpace=wrap;html=1;spacingTop=-7;spacing=5;align=left;verticalAlign=top;strokeColor=#588157;fontSize=11;" parent="1" vertex="1">
          <mxGeometry x="700" y="350" width="190" height="45" as="geometry" />
        </mxCell>
        <mxCell id="PONALPWFbD0zD82RdE57-49" value="Mx:&amp;nbsp;&lt;br&gt;• Active observation for 3mo&lt;br&gt;&amp;nbsp; ↳ 50% of children with bilat &lt;br&gt;&amp;nbsp; &amp;nbsp; &amp;nbsp; &amp;nbsp;hearing loss of 20dB likely to &lt;br&gt;&amp;nbsp; &amp;nbsp; &amp;nbsp; &amp;nbsp;resolve in 3mo&lt;br&gt;&amp;nbsp; ↳ reAx hearing at 3mo&lt;br&gt;• Autoinflation of Eustachian tube&lt;br&gt;• Surgery&lt;br&gt;&amp;nbsp; ↳&amp;nbsp;for persistent bilat OME + &lt;br&gt;&amp;nbsp; &amp;nbsp; &amp;nbsp; &amp;nbsp;hearing level in better ear of 25-&lt;br&gt;&amp;nbsp; &amp;nbsp; &amp;nbsp; &amp;nbsp;30&amp;nbsp;dBHL or worse over 3mo&lt;br&gt;&amp;nbsp; – &lt;b&gt;grommets&lt;/b&gt;: allows air to pass &lt;br&gt;&amp;nbsp; &amp;nbsp; &amp;nbsp;through to middle ear&lt;br&gt;&amp;nbsp; *&amp;nbsp;risk of infxn, tympanosclerosis&lt;br&gt;&amp;nbsp; &amp;nbsp; &amp;nbsp;↳ aural cleaning, topical abx&lt;br&gt;&amp;nbsp; &amp;nbsp; &amp;nbsp;↳ may require removal&lt;br&gt;&amp;nbsp; &amp;nbsp; &amp;nbsp;↳ swimming ok, no diving, use &lt;span style=&quot;white-space: pre;&quot;&gt;	&lt;/span&gt;&amp;nbsp; ear plugs, swim hats&lt;br&gt;&amp;nbsp; &amp;nbsp; &amp;nbsp;↳ extrude after 3-12mo, recheck &lt;br&gt;&lt;span style=&quot;white-space: pre;&quot;&gt;	&lt;/span&gt;&amp;nbsp; hearing; 25% need re-insertion&lt;br&gt;&amp;nbsp; – tympanostomy for adults&lt;br&gt;• Hearing aids for&amp;nbsp;persistent bilateral &lt;br&gt;&amp;nbsp; OME and&amp;nbsp;hearing loss if surgery &lt;br&gt;&amp;nbsp; not acceptable&lt;br&gt;• Topical or systemic abx NOT rec; &lt;br&gt;&amp;nbsp; also not rec: ∆ diet, antihist, &lt;br&gt;&amp;nbsp; decongestants, steroids, &lt;br&gt;&amp;nbsp; acupuncture" style="rounded=0;whiteSpace=wrap;html=1;spacingTop=-7;spacing=5;align=left;verticalAlign=top;strokeColor=#588157;fontSize=11;" parent="1" vertex="1">
          <mxGeometry x="700" y="405" width="190" height="375" as="geometry" />
        </mxCell>
        <mxCell id="4Aa1zpZgn2WmmMYVD14V-1" value="Viral labyrinthitis → hearing loss &lt;br&gt;&lt;span style=&quot;&quot;&gt;	&lt;/span&gt;&lt;span style=&quot;&quot;&gt;	&lt;/span&gt;&lt;span style=&quot;&quot;&gt;	&lt;/span&gt;&lt;span style=&quot;&quot;&gt;	&lt;/span&gt;&lt;span style=&quot;&quot;&gt;	&lt;/span&gt;&lt;span style=&quot;&quot;&gt;	&lt;/span&gt;&lt;span style=&quot;&quot;&gt;	&lt;/span&gt;&lt;span style=&quot;&quot;&gt;	&lt;/span&gt;&lt;span style=&quot;white-space: pre;&quot;&gt;	&lt;/span&gt;&lt;span style=&quot;white-space: pre;&quot;&gt;	&lt;/span&gt;&lt;span style=&quot;white-space: pre;&quot;&gt;	&lt;/span&gt;&lt;span style=&quot;white-space: pre;&quot;&gt;	&lt;/span&gt;+ tinnitus&lt;br&gt;Vestibular neuronitis → nope&amp;nbsp;&lt;br&gt;&lt;br&gt;Acoustic neuroma&lt;br&gt;• Vertigo, SNHL, tinnitus, absent corneal &lt;br&gt;&amp;nbsp; reflex&lt;br&gt;&lt;br&gt;Perforated eardrum&lt;br&gt;• Review in 4-6w&lt;br&gt;• If not healed, refer to ENT" style="text;html=1;strokeColor=none;fillColor=none;align=left;verticalAlign=top;whiteSpace=wrap;rounded=0;fontSize=11;fontColor=#000000;spacing=0;spacingTop=-5;" vertex="1" parent="1">
          <mxGeometry x="920" y="60" width="195" height="285" as="geometry" />
        </mxCell>
      </root>
    </mxGraphModel>
  </diagram>
</mxfile>
